<?xml version="1.0" standalone="no"?><!DOCTYPE svg PUBLIC "-//W3C//DTD SVG 1.1//EN" "http://www.w3.org/Graphics/SVG/1.1/DTD/svg11.dtd"><svg id="logo2.fw-Page%201" viewBox="0 0 75 90" style="background-color:#ffffff00" version="1.1"	xmlns="http://www.w3.org/2000/svg" xmlns:xlink="http://www.w3.org/1999/xlink" xml:space="preserve"	x="0px" y="0px" width="75px" height="90px">	<g id="Layer%201">		<path d="M 15.2819 69.4891 C 23.7849 80.8497 33.9845 86.8833 37.045 88.53 L 37.955 88.53 C 42.324 86.1792 61.243 74.8879 69.0042 51.9203 C 75.207 33.5645 72.4049 11.0409 72.1465 9.096 " fill="#16a085"/>		<path d="M 72.1465 9.096 C 72.1346 9.0065 72.1281 8.9606 72.1281 8.9606 C 72.1281 8.9606 62.435 2.0909 37.9554 2.0007 L 37.0446 2.0007 C 12.5632 2.0904 2.8719 8.9606 2.8719 8.9606 C 2.8719 8.9606 -0.4923 32.7204 5.9958 51.9203 C 8.3204 58.7996 11.6461 64.6313 15.2819 69.4891 C 44.1667 51.3333 63.8333 27.6667 72.1465 9.096 Z" fill="#41bb99"/>		<path d="M 19.1199 14.3205 L 19.0999 18.6404 L 22.3026 18.6404 L 22.3026 47.9202 L 27.8157 47.9202 L 27.8157 14.3205 L 19.1199 14.3205 Z" fill="#ffffff"/>		<path d="M 56.086 30.9202 C 56.0807 28.9541 55.9614 26.889 55.7265 24.8804 C 55.4862 22.8329 54.968 20.9954 54.1871 19.3604 C 53.3986 17.733 52.2347 16.4055 50.7028 15.378 C 49.1808 14.3695 47.1003 13.8521 44.5435 13.8405 C 41.9854 13.8517 39.9066 14.3692 38.3842 15.378 C 36.8523 16.4055 35.6883 17.733 34.8998 19.3604 C 34.1189 20.9954 33.6007 22.8329 33.3604 24.8804 C 33.1257 26.8877 33.0054 28.9554 33 30.9202 C 33.0053 32.8867 33.1255 34.951 33.3604 36.9601 C 33.6007 39.0076 34.1189 40.8451 34.8998 42.48 C 35.6883 44.1075 36.8523 45.435 38.3842 46.4625 C 39.9066 47.4713 41.9854 47.9887 44.5435 48 C 47.1003 47.9884 49.1808 47.471 50.7028 46.4625 C 52.2347 45.435 53.3986 44.1075 54.1871 42.48 C 54.968 40.8451 55.4862 39.0076 55.7265 36.9601 C 55.9613 34.9523 56.0806 32.8855 56.086 30.9202 ZM 49.9819 21.7554 C 50.5036 22.6962 50.4728 28.2279 50.47 30.9202 C 50.4728 33.6108 50.5039 39.1437 49.9819 40.0851 C 49.4337 41.0601 48.7203 41.735 47.8417 42.11 C 46.9742 42.4772 45.8499 42.672 44.5435 42.68 C 43.2393 42.6716 42.1116 42.4767 41.2452 42.11 C 40.3666 41.735 39.6532 41.0601 39.1051 40.0851 C 38.5833 39.1441 38.6171 33.6121 38.62 30.9202 C 38.6171 28.2292 38.5831 22.6967 39.1051 21.7554 C 39.6532 20.7804 40.3666 20.1054 41.2452 19.7304 C 42.1116 19.3638 43.2393 19.1689 44.5435 19.1605 C 45.8499 19.1685 46.9742 19.3633 47.8417 19.7304 C 48.7203 20.1054 49.4337 20.7804 49.9819 21.7554 Z" fill="#ffffff"/>		<path d="M 50.115 56 C 47.5918 58.4022 43.1104 60 38 60 C 32.8896 60 28.4082 58.4022 25.885 56 L 18.4 56 C 21.4349 60.6801 29.067 64 38 64 C 46.933 64 54.5651 60.6801 57.6 56 L 50.115 56 Z" fill="#ffffff"/>	</g></svg>