<?xml version="1.0" standalone="no"?><!-- Generator: Adobe Fireworks CS6, Export SVG Extension by Aaron Beall (http://fireworks.abeall.com) . Version: 0.6.1  --><!DOCTYPE svg PUBLIC "-//W3C//DTD SVG 1.1//EN" "http://www.w3.org/Graphics/SVG/1.1/DTD/svg11.dtd"><svg id="logo.fw-Page%201" viewBox="0 0 200 200" style="background-color:#ffffff00" version="1.1"	xmlns="http://www.w3.org/2000/svg" xmlns:xlink="http://www.w3.org/1999/xlink" xml:space="preserve"	x="0px" y="0px" width="200px" height="200px">	<g id="Layer%201">		<g visibility="hidden">			<path d="M 0 25.337 C 0 8.7642 8.5286 0 24.6559 0 L 175.3441 0 C 191.4713 0 200 8.7642 200 25.337 L 200 174.663 C 200 191.2357 191.4713 200 175.3441 200 L 24.6559 200 C 8.5286 200 0 191.2357 0 174.663 L 0 25.337 Z" fill="#fd1c15"/>		</g>		<text visibility="hidden" x="59" y="138" width="172" fill="#ffffff" style="font-size: 180px; color: #ffffff; font-family: Proxima Nova; text-align: center; "><tspan><![CDATA[1]]></tspan><tspan><![CDATA[0]]></tspan></text>		<text visibility="hidden" x="86" y="146" width="137" fill="#ffffff" style="font-size: 58px; color: #ffffff; font-family: Ubuntu Mono; text-align: center; "><tspan><![CDATA[hacks]]></tspan></text>		<text visibility="hidden" x="33" y="163" width="191" fill="#ffffff" style="font-size: 200px; color: #ffffff; font-family: Proxima Nova; text-align: center; "><tspan><![CDATA[1]]></tspan><tspan><![CDATA[0]]></tspan></text>		<text visibility="hidden" x="64" y="171" width="141" fill="#ffffff" style="font-size: 60px; color: #ffffff; font-family: Ubuntu Mono; text-align: left; "><tspan><![CDATA[hacks]]></tspan></text>		<path d="M 124.5219 153.9375 C 123.8969 152.1094 123.6 150.1406 123.6 148.0313 C 123.6 145.9688 123.9125 144.0156 124.5688 142.1875 C 125.2094 140.375 126.1938 138.7813 127.5219 137.4219 C 128.85 136.0625 130.5375 134.9844 132.5688 134.1875 C 134.6 133.4063 137.0219 133 139.85 133 C 141.5375 133 143.0531 133.125 144.4281 133.3438 C 145.8031 133.5625 147.1938 133.9375 148.6 134.4531 L 146.9125 140.0781 C 146.0844 139.7969 145.1625 139.5469 144.1469 139.3281 C 143.1156 139.1094 141.8188 139 140.2563 139 C 138.4125 139 136.8813 139.2344 135.6625 139.6875 C 134.4438 140.1406 133.4594 140.7656 132.7094 141.5469 C 131.9594 142.3438 131.4281 143.2969 131.1 144.4219 C 130.7563 145.5469 130.6 146.75 130.6 148.0313 C 130.6 150.8281 131.3344 153.0156 132.8031 154.6094 C 134.2719 156.2031 136.7875 157 140.35 157 C 141.5219 157 142.7406 156.9219 144.0219 156.7656 C 145.2875 156.6094 146.4438 156.3594 147.5063 155.9844 L 148.6 161.7031 C 147.5688 162.0781 146.3188 162.375 144.8656 162.6406 C 143.3969 162.875 141.6781 163 139.7094 163 C 136.8656 163 134.4281 162.6094 132.3969 161.8438 C 130.3656 161.0781 128.6938 160.0313 127.3969 158.6875 C 126.0844 157.3438 125.1313 155.7656 124.5219 153.9375 ZM 102.9719 133.375 C 104.5656 133.125 106.2063 133 107.9094 133 C 110.0969 133 111.9094 133.2813 113.3781 133.8281 C 114.8313 134.375 115.9875 135.1406 116.8625 136.1406 C 117.7219 137.1406 118.0469 138.3438 118.4219 139.7813 C 118.7969 141.2188 119 142.8438 119 144.625 L 119 161.6563 C 117.9531 161.9063 116.4063 162.1875 114.3594 162.5156 C 112.3125 162.8281 110.3156 163 107.7688 163 C 106.0188 163 104.4563 162.8281 103.05 162.5313 C 101.6438 162.2031 100.425 161.6875 99.425 160.9375 C 98.425 160.2031 97.6438 159.25 97.1125 158.0625 C 96.5656 156.8906 96.3 155.4531 96.3 153.7344 C 96.3 152.1094 96.5969 150.7344 97.2063 149.6094 C 97.8156 148.5 98.6438 147.6094 99.675 146.9219 C 100.7063 146.2344 101.8938 145.75 103.2375 145.4531 C 104.5813 145.1563 105.6719 145 107.125 145 C 108.9531 145 110.5781 145.1719 112 145.4844 L 112 144.5313 C 112 142.9688 111.5938 141.6563 110.7813 140.5938 C 109.9688 139.5313 108.8625 139 106.8781 139 C 105.5813 139 104.3313 139.1094 103.1438 139.2969 C 101.9406 139.5 100.9719 139.7344 100.2375 140.0156 L 99.3 134.2188 C 100.1594 133.9063 101.3781 133.625 102.9719 133.375 ZM 69 163 L 69 28.9492 L 51.0796 51.3985 L 35.9355 30.8789 L 61.075 0 L 24.6559 0 C 8.5286 0 0 8.7642 0 25.337 L 0 174.663 C 0 191.2357 8.5286 200 24.6559 200 L 175.3441 200 C 191.4713 200 200 195.2357 200 178.663 L 200 159.89 C 199.7732 160.1034 199.5273 160.3063 199.2625 160.5 C 198.2 161.2813 196.825 161.8906 195.1375 162.3281 C 193.45 162.7656 191.1219 163 188.6531 163 C 186.1219 163 180.625 162.9375 179 163 L 179 157 L 189.2781 157 C 191.1844 157 192.6375 156.875 193.6687 156.5938 C 194.6844 156.3281 195.2 155.7656 195.2 154.9219 C 195.2 154.3906 195.0437 153.9219 194.7312 153.5469 C 194.4187 153.1719 193.9656 152.8438 193.4031 152.5625 C 192.8406 152.2969 192.1844 152.0313 191.4656 151.7813 C 190.7312 151.5313 189.9656 151.2656 189.1687 151.0156 C 188.0437 150.7031 186.8875 150.3281 185.7156 149.8906 C 184.5437 149.4531 183.4812 148.9219 182.5125 148.2656 C 181.5437 147.6094 180.7625 146.7813 180.1375 145.7813 C 179.5125 144.7813 179.2 143.5313 179.2 142 C 179.2 140.7813 179.4344 139.6406 179.9031 138.5469 C 180.3719 137.4688 181.1219 136.5156 182.1375 135.6719 C 183.1531 134.8281 184.45 134.1719 186.0125 133.7031 C 187.575 133.2344 189.4656 133 191.6531 133 C 192.9646 133 197.0495 133.067 200 133.195 L 200 106.935 C 190.999 114.8864 179.2758 119.7377 164.3044 119.7377 C 162.491 119.7377 160.724 119.6646 159 119.525 L 159 145.0781 C 159.7188 144.25 160.4531 143.375 161.2031 142.4375 C 161.9531 141.5 162.5719 140.5469 163.2906 139.5469 L 165.3219 136.6563 C 165.9625 135.7188 166.525 134.8438 167.025 134 L 175.9 134 C 175.1656 134.9219 174.3375 135.9219 173.4156 136.9844 C 172.4781 138.0469 171.525 139.1406 170.5406 140.25 C 169.5562 141.375 168.5719 142.4375 167.5875 143.4688 C 166.5875 144.5 165.6969 145.4531 164.9 146.3281 C 165.9 147.2969 166.9781 148.4375 168.1344 149.7813 C 169.2906 151.125 170.4312 152.5 171.5562 153.9375 C 172.6812 155.375 173.7125 156.8594 174.65 158.2969 C 175.5875 159.7344 176.375 161.875 176.9375 163 L 168.8594 163 C 168.375 162 167.3375 160.0156 166.5562 158.75 C 165.775 157.5 164.9312 156.2031 164.0562 154.9844 C 163.1812 153.7656 162.3906 152.6094 161.4844 151.5156 C 160.5781 150.4219 159.75 149.5 159 148.7813 L 159 163 L 152 163 L 152 118.5625 L 152.04 118.565 C 121.252 112.3793 106.7203 82.6082 106.7203 51.4017 C 106.7203 31.851 112.3748 12.9239 124.17 0 L 97 0 L 97 118 L 77.0313 118 L 77 118 L 77 134 C 77.5781 133.7969 78.2813 133.4531 79.1094 133.2656 C 79.9375 133.0938 80.6719 133 81.2969 133 C 83.3281 133 85.0313 133.3125 86.4063 133.9375 C 87.7813 134.5625 88.875 135.4531 89.7031 136.5938 C 90.5156 137.75 91.1094 139.1094 91.4688 140.7031 C 91.8125 142.2969 92 144.0625 92 145.9844 L 92 163 L 85 163 L 85 146.6406 C 85 143.9375 84.6875 141.9844 84.0938 140.7969 C 83.4844 139.6094 82.3281 139 80.6406 139 C 79.9531 139 79.2656 139.0938 78.6094 139.25 L 77 139.6719 L 77 163 L 69 163 ZM 104.6594 156.3125 C 105.5656 156.7813 106.7531 157 108.2063 157 C 108.9563 157 109.3906 157 110.1094 156.9844 C 110.8281 156.9688 111.4688 156.9219 112 156.8438 L 112 151.2656 C 111.5313 151.2031 110.9844 151.1406 110.3438 151.0781 C 109.6875 151.0313 109.4094 151 108.8781 151 C 108.1594 151 107.4563 151.0469 106.7688 151.1406 C 106.0813 151.2344 105.4875 151.375 104.9719 151.5781 C 104.4563 151.7813 104.05 152.0781 103.7531 152.4531 C 103.4406 152.8281 103.3 153.3281 103.3 153.9531 C 103.3 155.0625 103.7531 155.8438 104.6594 156.3125 ZM 164.1194 89.8627 C 180.2619 89.8627 186.7203 74.9167 186.7203 51.4017 C 186.7203 27.8867 180.2619 13.1373 164.1194 13.1373 C 147.9768 13.1373 141.5197 27.8867 141.5197 51.4017 C 141.5197 74.9167 147.9768 89.8627 164.1194 89.8627 ZM 200 148.985 L 200 139.185 C 196.2563 139.0611 192.3528 139 191.3562 139 C 189.325 139 187.9656 139.25 187.2625 139.7344 C 186.5437 140.2188 186.2 140.7344 186.2 141.2656 C 186.2 141.7344 186.3562 142.1406 186.6687 142.5 C 186.9812 142.8594 187.3875 143.1875 187.9187 143.4688 C 188.45 143.7656 189.0594 144.0469 189.7469 144.3281 C 190.4344 144.6094 191.1844 144.8594 191.9969 145.1094 C 193.1219 145.4844 194.3094 145.8906 195.5281 146.3281 C 196.7469 146.7813 197.8406 147.3438 198.825 148.0156 C 199.249 148.305 199.6411 148.6273 200 148.985 Z" fill="#fd1c15"/>	</g></svg>